# xmcd
#
# Track frame offsets:
#	150
#	18946
#	36636
#	58187
#	84789
#	99154
#	113821
#	137910
#	161709
#	182201
#	203425
#	220550
#	267922
#
# Disc length: 4075 seconds
# Revision: 0
# Processed by: cddbd v1.5.2PL0 Copyright (c) Steve Scherf et al.
# Submitted via: dBpowerAMP V12.0
#
DISCID=ac0fe90d
DTITLE=Whaley, Jimbo - An Evening with Jimbo Whaley and Friends
DYEAR=2007
DGENRE=Bluegrass
TTITLE0=Timber
TTITLE1=The Hay's In The Barn
TTITLE2=Legend of Jack Huff
TTITLE3=Tennessee Eyes
TTITLE4=Cell Block
TTITLE5=Shenandoah Breakdown
TTITLE6=Uncle Sam Said "Giti"
TTITLE7=The Kings of OreBank
TTITLE8=Tree and 3 Nails
TTITLE9=Two Coats
TTITLE10=MR's Rolling Store
TTITLE11=Don't Stop Believin'
TTITLE12=I Know Where You Are
EXTD=
EXTT0=
EXTT1=
EXTT2=
EXTT3=
EXTT4=
EXTT5=
EXTT6=
EXTT7=
EXTT8=
EXTT9=
EXTT10=
EXTT11=
EXTT12=
PLAYORDER=
